<svg width="164" height="150" viewBox="0 0 164 150" fill="none" xmlns="http://www.w3.org/2000/svg">
<rect width="164" height="150" fill="#1E1E1E"/>
<g clip-path="url(#clip0_60_9)">
<rect x="-98" y="-482" width="360" height="640" rx="24" fill="url(#paint0_linear_60_9)" fill-opacity="0.96"/>
<g filter="url(#filter0_d_60_9)">
<path d="M160 70.9326C160.01 79.0101 158.5 87.0296 155.535 94.6437C155.522 94.679 155.509 94.711 155.494 94.7464V94.7481C153.273 100.413 150.266 105.796 146.545 110.768C145.9 111.634 145.233 112.486 144.542 113.324C143.783 114.25 142.999 115.159 142.191 116.048C141.446 116.869 140.682 117.673 139.897 118.463C138.966 119.403 138.006 120.319 137.018 121.211C134.694 123.315 132.226 125.285 129.63 127.108C129.174 127.429 128.713 127.746 128.248 128.056C127.164 128.784 126.058 129.486 124.931 130.162C122.452 131.653 119.88 133.012 117.229 134.233C116.772 134.445 116.31 134.654 115.847 134.856C114.056 135.643 112.228 136.367 110.363 137.028C109.831 137.218 109.298 137.402 108.759 137.579C108.668 137.611 108.577 137.641 108.484 137.67C102.091 139.768 95.4222 141.093 88.6491 141.609C88.1785 141.648 87.7073 141.68 87.2354 141.707C86.7352 141.739 86.2344 141.765 85.7329 141.784C85.3364 141.803 84.9418 141.816 84.5434 141.826C84.4619 141.83 84.3785 141.833 84.297 141.833C83.7616 141.848 83.2243 141.858 82.6851 141.862C82.4573 141.864 82.2294 141.865 81.9996 141.865C81.8922 141.865 81.7847 141.865 81.6773 141.864C80.1228 141.858 78.5801 141.812 77.0491 141.725C77.0176 141.724 76.9861 141.72 76.9546 141.72C76.4062 141.687 75.8597 141.651 75.315 141.607C73.3752 141.459 71.4563 141.246 69.5585 140.967C69.1213 140.905 68.6853 140.837 68.2505 140.765C66.3626 140.462 64.4993 140.096 62.6608 139.668C62.1143 139.542 61.5708 139.41 61.0304 139.272C53.5176 137.369 46.3634 134.446 39.8092 130.602C38.6828 129.943 37.5773 129.258 36.4928 128.546C36.3594 128.462 36.2279 128.375 36.0963 128.287C33.462 126.54 30.9504 124.646 28.5761 122.614C27.4515 121.654 26.3596 120.663 25.3005 119.642C11.5953 106.49 3.96982 89.0521 3.99963 70.9326C3.99963 31.7579 38.9218 0 81.9996 0C125.077 0 160 31.7579 160 70.9326Z" fill="#F2F2F2"/>
<path d="M91.5157 18.0832C93.0774 15.7343 94.928 13.2263 97.8262 12.4593C101.183 11.5711 104.63 13.3356 107.555 15.0768C116.301 20.2841 124.723 25.9274 132.784 31.9808L132.775 32.072C126.499 31.6785 120.224 31.2849 113.949 30.8914C109.415 30.607 104.725 30.2835 100.718 28.333C99.1977 27.5928 97.7157 26.6041 95.9928 26.5352C93.8522 26.4496 91.9858 27.8092 90.519 29.2295C81.8428 37.6314 79.332 50.48 69.5981 57.8617C75.736 44.0961 83.0649 30.7949 91.5157 18.0832V18.0832Z" fill="white"/>
<path d="M38.1839 89.3468C39.1433 88.2451 39.5354 87.987 40.4818 86.8751C48.1879 77.8114 55.431 68.4417 62.2111 58.7657C66.8164 52.1942 71.1934 45.4965 75.342 38.6726C77.317 35.4284 79.2379 32.1588 81.1047 28.8637C82.5533 26.3088 83.9695 23.7386 85.3534 21.1531C85.7492 20.4146 86.1338 19.6727 86.5164 18.9292C87.4181 17.1806 88.303 15.4236 89.2531 13.6988C90.3358 11.7329 91.6538 9.67201 93.642 8.35125C94.5468 7.72551 95.6287 7.3469 96.7614 7.25967C98.3798 7.16461 99.8732 7.77236 101.277 8.43613C111.548 13.3066 121.164 19.413 129.861 26.3614C138.581 33.3254 146.374 41.193 153.084 49.804C153.289 50.0705 153.774 49.8158 153.567 49.5476C152.751 48.4985 151.919 47.4607 151.071 46.4342C144.033 37.9156 135.916 30.1806 126.887 23.3888C122.417 20.0256 117.737 16.9007 112.87 14.0298C110.392 12.5699 107.869 11.1784 105.298 9.85534C104.003 9.18818 102.701 8.5295 101.378 7.91157C100.08 7.30551 98.7028 6.76057 97.2206 6.7402C92.1765 6.6689 89.5649 11.8636 87.7709 15.3591C87.2072 16.4591 86.6366 17.5558 86.0591 18.6491C83.8769 22.7998 81.6106 26.9126 79.2604 30.9874C77.8099 33.5033 76.3276 36.0045 74.8136 38.491C70.102 46.2339 65.094 53.82 59.7899 61.2494C52.7633 71.0905 45.7928 79.7841 37.7881 88.9869C37.5678 89.2416 37.9616 89.6049 38.1839 89.3468Z" fill="white"/>
<path d="M66.1008 48.038L58.5858 45.5384L54.8546 44.2973C53.6394 43.8931 52.4271 43.433 51.1709 43.1436C50.0602 42.8877 48.9317 42.8458 47.8367 43.1822C46.8705 43.5074 45.9861 44.006 45.2361 44.6482C44.4698 45.2899 43.7568 45.9823 43.103 46.7198C42.2907 47.6076 41.4903 48.5047 40.6864 49.3988C37.3683 53.089 34.072 56.7952 30.7973 60.5174C27.5227 64.2396 24.27 67.9776 21.0392 71.7314C17.8005 75.4943 14.5841 79.273 11.3899 83.0675C10.9987 83.5323 10.6077 83.9974 10.2171 84.4627C10.0013 84.7197 9.51465 84.4663 9.73352 84.2056C12.9512 80.373 16.1914 76.5561 19.4539 72.7549C22.7245 68.9446 26.0177 65.1505 29.3335 61.3725C32.6493 57.5946 35.9874 53.8331 39.3479 50.0879C40.1851 49.1549 41.0237 48.2229 41.8637 47.2919C42.5723 46.5066 43.2728 45.7128 44.05 44.9819C45.4765 43.6402 47.2588 42.4545 49.3922 42.4224C50.6465 42.4035 51.8604 42.7654 53.0258 43.1488C54.2822 43.5621 55.5355 43.9832 56.7902 44.4005L64.3578 46.9176L66.2497 47.5469C66.5854 47.6586 66.4404 48.1509 66.1008 48.038V48.038Z" fill="white"/>
<path d="M45.5191 48.063C46.2588 47.2441 47.0586 46.3866 48.1651 46.054L49.1982 46.0911C41.3343 58.7278 30.7135 69.7696 17.9878 78.5389C27.1649 68.3803 36.342 58.2216 45.5191 48.063Z" fill="white"/>
<path d="M95.7552 34.9798C95.7557 36.271 95.4076 37.5426 94.7416 38.683C94.0755 39.8234 93.1118 40.7976 91.9351 41.5202C90.7584 42.2428 89.4046 42.6917 87.9925 42.8274C86.5805 42.9632 85.1534 42.7816 83.8365 42.2987C82.5197 41.8158 81.3533 41.0462 80.4398 40.0577C79.5263 39.0692 78.8937 37.8918 78.5973 36.629C78.301 35.3662 78.3501 34.0565 78.7402 32.815C79.1304 31.5735 79.8498 30.438 80.8352 29.5083C80.849 29.4957 80.8629 29.4831 80.8768 29.4705C80.9462 29.4042 81.0156 29.3379 81.0885 29.2748C81.0889 29.2748 81.0894 29.2747 81.0898 29.2746C81.0902 29.2744 81.0906 29.2742 81.0909 29.2739C81.0912 29.2736 81.0915 29.2733 81.0917 29.2729C81.0918 29.2725 81.0919 29.2721 81.0919 29.2716C81.1821 29.1959 81.2723 29.1202 81.366 29.0476C82.6195 28.0483 84.1631 27.3986 85.8121 27.1765C87.461 26.9543 89.1454 27.169 90.6637 27.7949C92.1819 28.4209 93.4696 29.4314 94.3726 30.7057C95.2756 31.9799 95.7556 33.4638 95.7552 34.9798V34.9798Z" fill="black"/>
<path d="M90.087 41.4823C92.9276 38.8991 92.9276 34.7108 90.087 32.1276C87.2464 29.5443 82.6408 29.5443 79.8002 32.1276C76.9596 34.7108 76.9596 38.8991 79.8002 41.4823C82.6408 44.0655 87.2464 44.0655 90.087 41.4823Z" fill="#9E616A"/>
<path d="M90.1409 30.4437C89.014 29.4848 87.6125 28.8345 86.0973 28.5674C84.5822 28.3004 83.015 28.4275 81.5757 28.9341C81.5331 28.9493 81.4905 28.9661 81.4479 28.9846C81.446 28.9846 81.446 28.9863 81.4442 28.9863C81.3052 29.0386 81.1644 29.0925 81.0292 29.1514L80.9458 29.1885V29.1986C80.931 29.2087 80.9143 29.2205 80.8976 29.2306C80.8635 29.2595 80.8222 29.2803 80.7772 29.2913C79.3784 29.3081 78.239 29.7395 77.3941 30.5735C76.2658 31.6855 75.7359 33.4832 75.899 35.6365L75.9027 35.7022L75.9656 35.7392C76.5622 36.0779 77.1273 36.3761 77.672 36.6373C77.9944 36.794 78.3075 36.9372 78.6188 37.0686C78.6558 37.0838 78.6929 37.1006 78.7299 37.1158C81.8796 38.4384 84.7606 38.6776 87.5286 37.8403L87.5804 37.8251L88.7569 36.0324C88.8781 36.6449 89.2021 37.2091 89.6855 37.6496C90.1689 38.0901 90.7887 38.3859 91.4619 38.4974L91.951 38.5765L92.668 38.6911L92.6977 38.5681C93.4091 35.6533 92.3809 32.3897 90.1409 30.4437Z" fill="black"/>
<path d="M108.01 44.3272C105.535 43.1653 108.718 38.9485 108.078 36.4831C107.439 34.0176 102.832 33.2247 102.539 30.7056C102.245 28.1865 101.555 25.5884 99.7269 23.6769C98.5589 22.4555 96.8378 21.5538 95.0659 21.7068C94.4663 21.7585 93.8861 21.9272 93.3646 22.2013C92.8432 22.4753 92.3929 22.8484 92.0443 23.295C91.6958 23.7416 91.4571 24.2513 91.3447 24.7894C91.2322 25.3274 91.2486 25.8812 91.3927 26.4129C90.8882 25.7628 89.5826 25.9037 89.2594 26.6432C88.9721 27.3006 89.6068 28.0969 90.3538 28.155C91.3312 29.2527 92.4505 30.4177 93.9818 30.6392C94.4751 30.7105 95.0296 30.6582 95.3898 30.3436C95.7501 30.029 95.7781 29.4 95.3507 29.1649C97.2751 29.8601 98.4034 31.7522 98.6889 33.6173C98.9744 35.4823 98.5794 37.3694 98.3191 39.2375C98.0588 41.1056 97.9466 43.0708 98.7521 44.8056C99.7037 46.8552 101.895 48.3243 104.286 48.7954C106.677 49.2665 109.223 48.806 111.388 47.7687C113.552 46.7312 115.357 45.1475 116.831 43.372C114.292 45.012 110.778 45.6264 108.01 44.3272Z" fill="black"/>
<path d="M79.8866 72.1125L74.8624 103.312L102.288 101.433L94.0793 70.7393L79.8866 72.1125Z" fill="#FFB8B8"/>
<path d="M108.577 137.351C108.553 137.459 108.522 137.565 108.485 137.67C105.32 138.711 102.083 139.561 98.795 140.216C98.1021 138.143 96.7737 134.219 95.6102 131.01C94.6597 128.39 93.8204 126.247 93.5277 125.979C92.7143 125.242 93.5277 124.26 93.5277 124.26L90.0538 114.439L88.4753 109.978L87.9343 119.35L87.1487 132.927L87.1265 133.308C87.1265 133.308 86.0445 136.255 86.5855 136.747C87.1265 137.239 86.0445 139.205 86.0445 139.205L85.7333 141.784C85.3368 141.803 84.9421 141.816 84.5438 141.826L84.4085 141.865L84.2974 141.833C83.7619 141.848 83.2247 141.858 82.6855 141.862C82.4576 141.864 82.2297 141.865 82 141.865C81.8925 141.865 81.7851 141.865 81.6776 141.864C80.1232 141.858 78.5805 141.812 77.0495 141.725L76.099 134.691L75.1171 127.423C75.1171 127.423 76.1972 125.46 75.1171 124.477C74.4668 123.886 74.7929 123.027 75.1579 122.437C74.9318 121.526 74.6224 120.124 74.2056 118.048C74.1907 117.979 74.1778 117.908 74.1629 117.837C74.0314 117.179 73.9134 116.533 73.8091 115.9C73.6238 114.786 73.4793 113.716 73.3681 112.692C72.9911 109.374 72.939 106.032 73.2125 102.706C73.3162 101.523 73.4459 100.657 73.5312 100.157C73.5386 100.109 73.6182 99.8448 73.7479 99.427C73.9517 98.7581 74.2871 97.6966 74.6632 96.5088C74.8633 95.8787 75.0745 95.2131 75.2838 94.551C75.6488 93.4036 76.012 92.2663 76.3047 91.3464V91.3413C76.5622 90.5343 76.7679 89.8974 76.8753 89.5638C76.9272 89.4004 76.955 89.3111 76.955 89.3111C76.955 89.3111 77.0124 89.2993 77.1217 89.2774C77.4608 89.2066 78.2982 89.0364 79.4581 88.809C80.6679 88.5765 82.226 88.2816 83.938 87.9817C85.4035 87.7256 86.982 87.4645 88.5513 87.2303C89.1145 87.1477 89.6777 87.0668 90.2335 86.991C93.6667 86.526 96.8181 86.2615 98.3115 86.5631C98.4149 86.583 98.5169 86.6084 98.6172 86.6389C98.7185 86.6694 98.816 86.7095 98.908 86.7585C98.9544 86.7838 99.4027 88.3743 99.9752 90.4467C99.9808 90.4669 99.9863 90.4888 99.9919 90.509C100.164 91.1358 100.348 91.803 100.535 92.4854C100.726 93.1812 100.918 93.8905 101.107 94.5813C101.669 96.6335 102.187 98.5323 102.454 99.4624C102.556 99.8229 102.623 100.037 102.638 100.06C103.264 101.009 103.775 103.334 104.19 106.251C104.561 108.854 104.855 111.929 105.083 114.916C105.196 116.394 105.293 117.851 105.374 119.219C105.65 123.822 105.761 127.416 105.761 127.416C105.761 127.416 106.174 130.412 106.995 131.825C107.096 132.008 107.225 132.176 107.379 132.326C107.925 132.823 107.988 133.254 107.916 133.561C107.884 133.705 107.819 133.842 107.723 133.962C107.702 133.991 107.678 134.018 107.651 134.044C107.58 134.349 107.593 134.665 107.687 134.964C107.781 135.264 107.955 135.538 108.192 135.763C108.716 136.243 108.674 136.93 108.577 137.351Z" fill="black"/>
<path d="M99.5936 62.1056C99.562 61.8933 99.5287 61.6794 99.4935 61.4637C99.4731 61.3255 99.449 61.1874 99.4268 61.0509C99.1915 59.6727 100.172 58.4933 98.9025 57.5397C98.6057 57.3201 98.3639 57.0455 98.1929 56.7343L97.902 56.2019L97.3666 55.2146L96.1956 53.068L95.9937 52.6991C95.9365 52.5943 95.8709 52.4934 95.7973 52.3975C95.5784 52.1085 95.2933 51.8659 94.9617 51.6865L92.0529 50.1094C91.6034 49.8669 91.2415 49.5103 91.0117 49.0834L90.9394 48.9486C90.6189 48.3504 90.0446 46.92 89.3646 46.2983L89.3627 46.2966C89.2146 46.1425 89.0135 46.0386 88.7921 46.0017L85.8963 45.7406C85.4332 45.6978 84.9658 45.7652 84.54 45.9362C84.1141 46.1073 83.7445 46.376 83.4674 46.7161L83.3877 47.0447L82.9227 48.9705L82.8967 48.9755C82.7596 49.0042 82.6225 49.0328 82.4873 49.0682C79.484 49.8146 78.2316 59.3627 78.2316 59.3627C78.2316 59.3627 76.1287 62.5184 76.955 64.4712L78.4298 67.6202C78.4412 67.644 78.4499 67.6689 78.4558 67.6943C78.5891 68.0371 78.6359 68.4027 78.5929 68.7642L78.5947 68.8872L78.5984 69.1585L78.6095 69.8543L78.6447 72.1626L78.6892 75.0521L78.7281 77.5137L78.7411 78.1691L76.3121 87.7812C76.2724 88.097 76.3015 88.4169 76.3978 88.7225C76.4941 89.0281 76.6558 89.3134 76.8735 89.5621L76.8754 89.5638C76.9287 89.626 76.9856 89.6856 77.0458 89.7424L77.0477 89.7441C77.1051 89.798 77.1644 89.8469 77.2255 89.8957C77.518 90.1284 77.8629 90.3001 78.2361 90.3988C78.6093 90.4975 79.0017 90.5207 79.3858 90.4669L79.71 90.4214H79.7119L84.4178 89.7795H84.4215L84.9662 89.7053H84.9699L90.2373 88.9859H90.241L91.1432 88.8612C91.2155 88.8528 91.2859 88.8444 91.3582 88.8393L96.1808 88.5377C96.2915 88.5309 96.4016 88.518 96.5106 88.499H96.5125C96.9365 88.4227 97.3341 88.2547 97.6717 88.0093C98.0094 87.7638 98.2771 87.4481 98.4523 87.0887C98.5251 86.9447 98.5804 86.7939 98.6172 86.6389C98.659 86.4713 98.6819 86.3002 98.6857 86.1284L98.7394 81.9971L98.9229 68.6463C98.9266 68.2008 99.0665 67.7651 99.3268 67.3877C99.9956 66.4172 99.9196 64.3381 99.5936 62.1056Z" fill="#6C63FF"/>
<path d="M91.5076 97.7629C91.4398 97.4224 91.4549 97.0725 91.5518 96.7379C91.6488 96.4033 91.8252 96.0921 92.0687 95.8262C92.3122 95.5603 92.6169 95.3462 92.9612 95.1989C93.3056 95.0517 93.6812 94.9749 94.0618 94.974L97.0705 87.02L100.004 90.4824L96.6972 97.5049C96.6566 98.0863 96.3828 98.634 95.9278 99.0441C95.4728 99.4542 94.8681 99.6983 94.2284 99.7301C93.5888 99.7619 92.9585 99.5792 92.457 99.2167C91.9555 98.8541 91.6177 98.3368 91.5076 97.7629H91.5076Z" fill="#9E616A"/>
<path d="M102.988 81.0283L102.312 82.5783L101.367 92.1669C101.073 92.2339 100.793 92.3413 100.535 92.4853C99.9745 92.8004 99.5479 93.2785 99.3242 93.8419C99.1005 94.4053 99.093 95.021 99.3027 95.5888L99.5806 96.347L97.5148 95.7691L94.1187 94.8205L90.115 93.7018L90.7931 91.7019C90.95 91.2424 90.9818 90.7551 90.8856 90.2819C90.7894 89.8088 90.5682 89.364 90.241 88.9859C90.1599 88.8918 90.0727 88.8024 89.9797 88.718L90.2335 86.991L90.3836 85.9649L88.5513 87.2303L84.9681 89.7053H84.9662L84.4919 90.0339C84.4919 90.0339 84.466 89.9462 84.4178 89.7794C84.327 89.4576 84.1566 88.841 83.938 87.9817C82.8553 83.6998 82.0578 79.3624 81.5498 74.9931C81.4386 74.0092 81.3423 73.0016 81.2645 71.9789C81.1848 70.9259 81.1255 69.8577 81.094 68.7827C80.8272 60.0332 82.3057 50.8609 88.4846 46.1702C88.7834 46.1721 89.0801 46.2153 89.3646 46.2983C91.8658 46.9975 94.6097 50.4144 96.5069 52.8591C96.9553 53.437 97.3554 53.9593 97.6945 54.3788L98.5153 55.3948C99.6359 56.783 100.412 58.376 100.789 60.0636C100.868 60.4208 100.931 60.7824 100.976 61.1486L101.872 68.6496V70.5821L102.988 81.0283Z" fill="#6C63FF"/>
<path d="M8.51877 94.4747C10.1283 96.209 11.8692 97.8389 13.7287 99.3524L150.382 99.5209C152.242 98.0074 153.983 96.3775 155.592 94.6432L8.51877 94.4747Z" fill="#CCCCCC"/>
<path d="M82.6855 141.862C82.4576 141.864 82.2298 141.865 82 141.865C81.8926 141.865 81.7851 141.865 81.6776 141.864C80.1232 141.858 78.5805 141.812 77.0495 141.725L77.0866 142L76.955 141.72L74.0184 135.503L76.0991 134.691L79.9157 133.2L81.0736 136.821L82.1816 140.288L82.5114 141.316L82.6855 141.862Z" fill="#566186" fill-opacity="0.65"/>
<path d="M69.0809 134.644L68.2509 140.765C66.3629 140.462 64.4997 140.096 62.6612 139.668V134.646L69.0809 134.644Z" fill="#566186" fill-opacity="0.65"/>
<path d="M39.8096 123.362V130.602C38.6832 129.943 37.5777 129.258 36.4932 128.546V123.362H39.8096Z" fill="#CACACA"/>
<path d="M52.6583 122.156V125.773C52.6581 126.439 52.367 127.078 51.8491 127.55C51.3311 128.021 50.6286 128.286 49.8959 128.287H36.0967C33.4624 126.54 30.9508 124.646 28.5765 122.614C27.4519 121.654 26.36 120.663 25.3009 119.642H49.8959C50.6285 119.643 51.3309 119.908 51.8488 120.379C52.3667 120.851 52.6578 121.489 52.6583 122.156V122.156Z" fill="#26DC4E"/>
<path d="M84.9977 141.695L84.5438 141.826L84.4085 141.865L84.2974 141.833C83.7619 141.848 83.2246 141.858 82.6855 141.862C82.4576 141.863 82.2297 141.865 82 141.865C81.8925 141.865 81.7851 141.865 81.6776 141.863C80.1232 141.858 78.5805 141.812 77.0495 141.725L77.0865 142L76.955 141.72C76.4066 141.687 75.86 141.651 75.3153 141.607L71.004 135.041L62.1313 121.531L61.103 119.965C61.103 119.965 57.5958 120.909 52.6323 121.814C48.8917 122.498 44.3247 123.156 39.8096 123.372C38.6961 123.426 37.5863 123.453 36.4932 123.445C33.6678 123.428 30.9535 123.187 28.5765 122.614C27.4519 121.654 26.36 120.663 25.3008 119.642C23.4953 117.906 21.7874 116.088 20.1836 114.195C20.162 113.5 20.201 112.805 20.3003 112.116C20.317 112.001 20.3337 111.885 20.354 111.767L20.8598 103.956L24.6172 103.504L30.3347 102.817L36.5284 102.072L37.2102 106.928C37.2102 106.928 42.0329 106.706 48.1432 106.78C57.9571 106.901 71.0893 107.791 72.8679 111.608C73.0346 111.967 73.2014 112.33 73.3681 112.692C76.8216 120.215 79.9935 128.23 82.1482 133.924C82.5595 135.009 82.9319 136.009 83.2636 136.905C84.3585 139.865 84.9977 141.695 84.9977 141.695Z" fill="black"/>
<path d="M74.4927 115.913C74.402 116.628 74.3062 117.339 74.2056 118.048C73.3163 124.317 72.0916 130.305 71.004 135.042C70.4723 137.353 69.9721 139.365 69.5589 140.967C69.1217 140.905 68.6857 140.837 68.2509 140.765C66.3629 140.462 64.4997 140.096 62.6612 139.668C62.1146 139.542 61.5712 139.41 61.0308 139.272L62.1313 121.531L62.4944 115.662L73.8091 115.9L74.4927 115.913Z" fill="black"/>
<path d="M92.6856 88.4718C93.1574 88.2322 93.6812 88.0896 94.2202 88.0539C94.7592 88.0183 95.3003 88.0906 95.8052 88.2657C96.3102 88.4408 96.7667 88.7145 97.1428 89.0674C97.5189 89.4204 97.8053 89.844 97.9818 90.3085L111.118 90.3226L107.353 95.501L95.4561 94.6937C94.5784 94.9117 93.6432 94.8293 92.8278 94.4622C92.0124 94.0951 91.3734 93.4687 91.0319 92.7018C90.6904 91.9349 90.6702 91.0807 90.9749 90.3011C91.2797 89.5215 91.8884 88.8706 92.6856 88.4719L92.6856 88.4718Z" fill="#566186" fill-opacity="0.65"/>
<path d="M99.8475 95.4749L123.506 97.6123L123.569 97.5397C123.688 97.401 135.531 83.615 137.521 80.3333C138.745 78.3616 139.191 76.0685 138.784 73.8346L138.771 73.78L138.724 73.7438C137.759 73.0084 136.547 72.5941 135.289 72.569C134.03 72.5439 132.8 72.9095 131.8 73.6057C126.995 76.9902 123.12 81.344 120.482 86.3236L118.985 89.1577L101.623 89.8351L99.8475 95.4749Z" fill="#6C63FF"/>
<path d="M90.7226 134.324L87.2358 141.707C86.7356 141.739 86.2347 141.765 85.7332 141.784C85.3368 141.803 84.9421 141.816 84.5438 141.826L84.4085 141.865L84.2974 141.833C83.7619 141.848 83.2246 141.858 82.6855 141.862C82.4576 141.864 82.2297 141.865 82 141.865C81.8925 141.865 81.7851 141.865 81.6776 141.864L81.9092 141.142L82.1815 140.288L83.2636 136.905L84.8254 132.021L87.1487 132.927L90.7226 134.324Z" fill="#566186" fill-opacity="0.65"/>
<path d="M115.848 134.856C114.056 135.643 112.228 136.367 110.363 137.028L108.54 134.24L114.417 131.893L115.848 134.856Z" fill="#566186" fill-opacity="0.65"/>
<path d="M128.248 122.183V128.056C127.164 128.784 126.059 129.486 124.931 130.162V122.183H128.248Z" fill="#CACACA"/>
<path d="M139.898 118.462C138.966 119.403 138.006 120.319 137.019 121.21C134.695 123.315 132.227 125.285 129.63 127.108H114.845C114.453 127.108 114.065 127.031 113.707 126.884C113.35 126.737 113.031 126.522 112.772 126.253L112.77 126.248C112.462 125.932 112.248 125.549 112.148 125.136L112.146 125.133C112.104 124.956 112.083 124.775 112.083 124.594V120.976C112.083 120.31 112.374 119.671 112.892 119.2C113.41 118.729 114.113 118.463 114.845 118.462H139.898Z" fill="#26DC4E"/>
<path d="M145.99 104.343L144.387 110.587C144.544 111.492 144.596 112.409 144.543 113.324C143.783 114.25 142.999 115.159 142.192 116.048C141.447 116.869 140.682 117.673 139.898 118.463C138.966 119.403 138.006 120.319 137.019 121.211C134.447 121.945 131.416 122.245 128.248 122.265C127.155 122.274 126.045 122.247 124.931 122.193C120.416 121.977 115.849 121.318 112.109 120.634C111.119 120.456 110.189 120.274 109.333 120.097C107.712 119.765 106.356 119.455 105.374 119.219C104.268 118.956 103.638 118.786 103.638 118.786L99.4305 125.194L95.6102 131.01L88.6494 141.609C88.1789 141.648 87.7076 141.68 87.2358 141.707C86.7356 141.739 86.2347 141.765 85.7333 141.784C85.3368 141.803 84.9421 141.816 84.5438 141.826L84.4086 141.865L84.2974 141.833L82.5114 141.316L81.9092 141.142L79.7434 140.516C79.7434 140.516 80.2269 139.131 81.0736 136.821C81.3849 135.973 81.7443 134.999 82.1482 133.924C83.6063 130.039 85.6277 124.821 87.9343 119.35C88.618 117.726 89.3257 116.078 90.0538 114.439C90.6504 113.093 91.2581 111.752 91.8732 110.429C92.9422 108.136 98.1076 106.899 104.19 106.251C104.5 106.219 104.811 106.187 105.124 106.156C108.224 105.86 111.512 105.706 114.588 105.636C116.127 105.6 117.613 105.587 118.995 105.585C119.442 105.585 119.876 105.586 120.298 105.588H120.3C121.439 105.594 122.488 105.609 123.41 105.626C123.59 105.629 123.764 105.634 123.935 105.637H123.937C124.051 105.639 124.164 105.642 124.276 105.644C126.293 105.691 127.531 105.749 127.531 105.749L128.011 102.325L128.109 101.634L128.202 100.977V100.975L128.213 100.893L128.289 100.891L129.623 100.868L140.835 100.669L146.96 100.559L145.99 104.343Z" fill="black"/>
<path d="M117.23 134.233C116.772 134.445 116.311 134.654 115.848 134.856C114.056 135.643 112.228 136.367 110.363 137.028C109.832 137.218 109.298 137.402 108.759 137.579C108.7 137.503 108.639 137.427 108.577 137.351C106.006 134.142 102.738 129.906 99.4305 125.194C98.0465 123.222 96.6551 121.167 95.3045 119.067L105.083 114.916L106.18 114.451L109.333 120.097L112.146 125.133L112.772 126.253L117.23 134.233Z" fill="black"/>
<path d="M131.424 64.0333C136.399 64.0333 140.433 60.3653 140.433 55.8406C140.433 51.3159 136.399 47.6479 131.424 47.6479C126.448 47.6479 122.415 51.3159 122.415 55.8406C122.415 60.3653 126.448 64.0333 131.424 64.0333Z" fill="#566186" fill-opacity="0.65"/>
<path d="M131.126 63.6776C133.232 64.5967 135.825 64.2854 137.836 63.2041C139.847 62.1228 141.326 60.3593 142.361 58.4543C143.118 57.0591 143.668 55.4613 143.23 53.9574C142.791 52.4534 141.041 51.1933 139.402 51.6388C140.525 50.8163 140.394 49.1203 139.487 48.1013C138.579 47.0823 137.147 46.5923 135.764 46.223C133.756 45.687 131.646 45.3087 129.575 45.5829C127.504 45.857 125.465 46.8766 124.491 48.5608C123.814 48.7193 123.099 48.6693 122.457 48.4186C121.816 48.1679 121.283 47.7308 120.944 47.1756C120.718 47.7093 120.692 48.2958 120.87 48.8443C121.048 49.3928 121.419 49.8728 121.927 50.2099L119.122 48.8261C118.407 49.7274 119.057 51.102 120.143 51.6125C121.228 52.1231 122.54 51.9869 123.725 51.7141C124.909 51.4413 123.512 53.7164 124.733 53.7383C125.955 53.7602 127.277 54.3417 127.627 55.4065C127.81 55.9642 127.703 56.5631 127.757 57.1431C127.811 57.7231 128.117 58.3665 128.735 58.5176C129.126 58.6131 129.553 58.4866 129.94 58.5926C130.42 58.724 130.713 59.191 130.755 59.6453C130.797 60.0996 130.641 60.5475 130.486 60.9812C129.875 62.695 131.836 61.7344 131.225 63.4482L131.126 63.6776Z" fill="black"/>
<path d="M148.802 87.8772C148.728 81.1108 148.391 76.4994 147.802 74.1692C146.219 67.9049 138.91 66.7626 137.765 66.6211C137.643 66.3258 137.456 66.0565 137.215 65.83C136.973 65.6034 136.683 65.4244 136.363 65.3042C136.042 65.1839 135.698 65.1249 135.351 65.1309C135.004 65.1369 134.662 65.2077 134.347 65.3389L129.154 67.5022C128.1 67.9425 127.158 68.575 126.384 69.3604C125.61 70.1459 125.023 71.0675 124.657 72.0682L123.887 74.208L123.499 88.568L124.778 94.6083L124.78 94.6116L125.641 98.6806L125.048 99.4893L121.663 104.106L121.606 104.187L121.604 104.188L121.456 104.389C121.661 104.492 121.865 104.593 122.065 104.694C122.584 104.953 123.09 105.208 123.583 105.457C123.701 105.518 123.818 105.577 123.935 105.637H123.937C124.011 105.674 124.085 105.711 124.157 105.749C126.006 106.689 127.689 107.56 129.206 108.362C129.417 108.473 129.626 108.584 129.832 108.694C136.835 112.419 140.385 114.7 142.192 116.048C142.999 115.159 143.783 114.25 144.543 113.324C145.232 112.486 145.899 111.634 146.545 110.768C146.658 110.09 146.734 109.413 146.809 108.749C146.897 107.951 146.99 107.123 147.146 106.31C147.214 105.949 146.951 105.607 146.697 105.277C146.462 104.968 146.24 104.679 146.286 104.406C146.334 104.124 146.675 103.818 147.007 103.519C147.368 103.193 147.742 102.856 147.796 102.5C147.944 101.509 148.076 100.515 148.191 99.5179C148.38 97.8954 148.525 96.2679 148.626 94.6352C148.769 92.3809 148.827 90.1282 148.802 87.8772Z" fill="#6C63FF"/>
<path d="M114.508 111.762C114.661 111.29 114.926 110.855 115.283 110.487C115.641 110.118 116.083 109.826 116.579 109.629C117.074 109.433 117.611 109.338 118.151 109.351C118.691 109.364 119.222 109.484 119.705 109.704L129.102 101.355L130.396 107.451L121.275 114.444C120.816 115.158 120.084 115.694 119.219 115.951C118.354 116.208 117.416 116.167 116.582 115.836C115.748 115.505 115.076 114.908 114.694 114.157C114.312 113.406 114.246 112.554 114.509 111.762L114.508 111.762Z" fill="#566186" fill-opacity="0.65"/>
<path d="M125.013 112.208L143.561 98.6809L143.55 98.5894C143.528 98.4143 141.382 81.0294 140.279 77.4187C139.636 75.2311 138.191 73.3091 136.181 71.9718L136.13 71.9414L136.068 71.9455C134.813 72.0341 133.629 72.509 132.71 73.2919C131.792 74.0748 131.194 75.119 131.016 76.2522C130.186 81.7279 130.768 87.3038 132.715 92.54L133.826 95.5173L121.943 107.049L125.013 112.208Z" fill="#6C63FF"/>
<path d="M30.0335 63.8863C34.4731 63.8863 38.0722 60.6134 38.0722 56.576C38.0722 52.5386 34.4731 49.2656 30.0335 49.2656C25.5938 49.2656 21.9948 52.5386 21.9948 56.576C21.9948 60.6134 25.5938 63.8863 30.0335 63.8863Z" fill="#A0616A"/>
<path d="M19.2333 112.256L19.1895 112.2C16.8478 109.219 20.3697 102.055 20.9009 101.016C20.2701 100.83 19.7298 100.451 19.372 99.9431C19.0141 99.4354 18.8609 98.8305 18.9384 98.2316L19.1674 96.4615L19.4061 94.7252L17.6961 93.1702L17.6913 93.1314L16.7073 85.3012L15.2765 80.1004C14.7374 78.1343 14.7833 76.0731 15.4096 74.1285C16.0359 72.1839 17.2199 70.4259 18.8402 69.035L22.1474 68.5574L26.1668 65.0356H32.6484L34.8708 66.9666C39.2401 70.2236 40.2774 68.8087 45.2043 74.9399L41.6766 83.392L43.6484 95.8579L43.6496 98.1139L44.6766 99.1519C45.0466 99.5258 45.3154 99.9731 45.4617 100.458C45.6079 100.943 45.6276 101.453 45.5192 101.946L45.3841 102.56C45.9061 102.763 46.3668 103.078 46.7277 103.476C47.0885 103.875 47.3389 104.347 47.4579 104.852L47.8186 106.382C48.1272 106.753 50.1642 109.223 50.1642 109.898C50.1642 109.999 50.0819 110.097 49.9053 110.206C48.5172 111.061 40.8446 112.803 37.4489 111.568C33.8317 110.253 19.4529 112.226 19.3081 112.246L19.2333 112.256Z" fill="#26DC4E"/>
<path d="M15.1494 82.6018L21.8334 81.4119C24.3053 84.769 25.6324 93.9485 25.6324 93.9485L33.0223 107.886C33.4765 108.136 33.8495 108.492 34.1032 108.917C34.357 109.342 34.4824 109.82 34.4668 110.303C34.4512 110.786 34.295 111.257 34.0143 111.667C33.7335 112.078 33.3382 112.413 32.8685 112.639C32.3988 112.865 31.8716 112.974 31.3406 112.955C30.8096 112.936 30.2936 112.789 29.8454 112.529C29.3972 112.269 29.0326 111.906 28.7888 111.477C28.5451 111.047 28.4309 110.567 28.4578 110.084L18.8195 93.5712L15.1494 82.6018Z" fill="#A0616A"/>
<path d="M15.112 84.0439L14.922 75.0097L18.0674 71.1829C18.688 70.4337 19.5265 69.8573 20.4884 69.5187C21.4503 69.1802 22.4971 69.093 23.5106 69.2671V69.2671C24.8827 69.5115 26.1016 70.2206 26.9207 71.251C27.7399 72.2814 28.0983 73.5562 27.9234 74.8177C27.3895 78.6432 26.1774 83.4304 23.4351 84.5135L23.4073 84.5245L26.2494 93.5636L15.7096 94.9025L15.112 84.0439Z" fill="#26DC4E"/>
<path d="M54.8092 83.2457C54.8092 83.2457 46.7878 77.5439 42.4374 76.7249L38.5869 81.8339L49.0005 87.6374L69.2751 92.9685C69.6302 93.3271 70.0832 93.5938 70.5883 93.7417C71.0934 93.8896 71.6325 93.9133 72.1509 93.8104C72.6693 93.7076 73.1485 93.4818 73.5399 93.1561C73.9314 92.8303 74.2211 92.4162 74.3796 91.9557C74.5381 91.4952 74.5599 91.0048 74.4426 90.5342C74.3253 90.0636 74.0732 89.6296 73.7119 89.2763C73.3506 88.923 72.8928 88.6629 72.3852 88.5224C71.8776 88.3819 71.3382 88.3661 70.8216 88.4766L54.8092 83.2457Z" fill="#A0616A"/>
<path d="M40.6969 84.3914L32.3375 79.5071L30.592 75.0008C30.2529 74.115 30.1929 73.1606 30.419 72.2454C30.645 71.3302 31.148 70.4908 31.8711 69.822C32.858 68.9213 34.1842 68.3951 35.5814 68.3496C36.9787 68.3042 38.3428 68.7429 39.398 69.5772C42.5958 72.1096 46.7168 72.9583 46.1801 75.633L47.7196 75.8375L55.5925 81.2748L50.9498 89.9833L40.6969 84.3914Z" fill="#26DC4E"/>
<path d="M20.9154 51.7726C21.818 50.5027 23.5119 49.6563 25.154 49.8941C25.3069 48.9411 25.7443 48.0445 26.4187 47.3019C27.0931 46.5593 27.9786 45.9992 28.9788 45.6826C29.9789 45.366 31.0555 45.3049 32.0912 45.5062C33.1268 45.7074 34.082 46.1632 34.8525 46.8239C35.336 46.4741 36.0388 46.4557 36.6127 46.6637C37.1779 46.8974 37.6696 47.2563 38.0427 47.7075C38.985 48.7761 39.591 50.0571 39.7962 51.414C40.0015 52.771 39.7983 54.1532 39.2082 55.4134C39.4089 54.75 38.6778 54.1258 37.939 53.9769C37.2003 53.828 36.4254 53.9689 35.6763 53.8719C34.7162 53.7477 33.8531 53.2412 32.8914 53.1272C32.0832 53.0314 31.2704 53.2198 30.4823 53.4087C29.6942 53.5976 28.8835 53.7902 28.0742 53.7028C27.2648 53.6154 26.2222 56.4048 26.2362 58.3694C26.2388 58.7418 26.1545 59.2198 25.7544 59.2988C25.2617 59.3961 24.9762 58.7776 24.5072 58.6091C24.0893 58.459 23.5884 58.7372 23.4429 59.1238C23.3838 59.3215 23.3775 59.5291 23.4245 59.7295C23.4715 59.9299 23.5704 60.1171 23.713 60.2757C24.0013 60.5901 24.3435 60.8601 24.7265 61.0752L24.5333 61.2213C24.212 61.6073 23.5456 61.624 23.0825 61.3852C22.6194 61.1464 22.3151 60.7215 22.0408 60.3066C21.184 59.0107 20.4325 57.6299 20.1301 56.143C19.8277 54.6561 20.0128 53.0425 20.9154 51.7726Z" fill="black"/>
<path opacity="0.2" d="M91.511 64.0578C92.3264 67.1472 92.7026 70.3189 92.6304 73.4953C92.561 76.6721 92.0501 79.8282 91.1099 82.8884C90.5793 84.6166 89.9101 86.307 89.1076 87.9461C88.9632 88.2407 89.442 88.4981 89.5876 88.2012C91.0364 85.2477 92.0609 82.1368 92.6358 78.9452C93.213 75.753 93.3424 72.507 93.021 69.2851C92.8391 67.4788 92.5136 65.6869 92.047 63.9235C91.9632 63.6074 91.4271 63.7412 91.511 64.0578H91.511Z" fill="black"/>
<path opacity="0.2" d="M143.405 85.6755L138.758 95.9899C138.011 97.6499 137.285 99.3199 136.507 100.968C135.806 102.453 135.007 103.943 133.828 105.167C132.637 106.402 131.036 107.404 129.207 107.6C128.856 107.638 128.852 108.144 129.207 108.106C130.878 107.927 132.376 107.171 133.585 106.127C134.893 104.997 135.815 103.558 136.567 102.081C137.406 100.435 138.119 98.7331 138.875 97.0548L141.251 91.7814L143.941 85.8099C144.076 85.5091 143.539 85.3781 143.405 85.6755V85.6755Z" fill="black"/>
<path d="M88.3289 95.0375C88.4105 95.2536 88.5654 95.4407 88.7712 95.5718C88.977 95.7029 89.2232 95.7713 89.4745 95.7672L94.3827 95.6523C94.6358 95.6479 94.8805 95.569 95.0802 95.4276C95.2799 95.2862 95.424 95.0898 95.4908 94.8677L96.1853 88.1136C96.4318 88.2151 96.7001 88.2652 96.9705 88.2603C97.2055 88.2549 97.437 88.2075 97.6519 88.1208C97.8667 88.0341 98.0607 87.9097 98.2227 87.7548C98.3847 87.5999 98.5115 87.4175 98.596 87.218C98.6805 87.0185 98.7209 86.8059 98.715 86.5922C98.7091 86.3785 98.657 86.1679 98.5616 85.9725C98.4662 85.7772 98.3295 85.6008 98.1592 85.4535C97.9888 85.3061 97.7883 85.1908 97.5689 85.114C97.3495 85.0371 97.1157 85.0004 96.8807 85.0057C96.7726 85.0054 96.6647 85.0156 96.559 85.0361C96.444 84.923 96.3043 84.8331 96.1488 84.772C95.9932 84.711 95.8254 84.6803 95.656 84.6818L88.106 84.8591C88.0434 84.8612 87.9811 84.8682 87.9198 84.8801C87.7542 84.9082 87.5972 84.9682 87.4592 85.0561C87.3213 85.144 87.2057 85.2577 87.1201 85.3897C87.0346 85.5216 86.9811 85.6687 86.9633 85.821C86.9455 85.9733 86.9638 86.1273 87.0169 86.2726L88.3289 95.0375ZM96.3278 87.655L96.822 86.0455C96.8783 85.8596 96.8795 85.6634 96.8258 85.4769C96.8498 85.4769 96.8709 85.4665 96.8949 85.4665C97.2338 85.4601 97.5616 85.5762 97.8065 85.7893C98.0514 86.0024 98.1934 86.2951 98.2014 86.6033C98.2093 86.9114 98.0825 87.2099 97.8489 87.4332C97.6152 87.6565 97.2937 87.7864 96.9549 87.7945C96.7358 87.8007 96.519 87.7525 96.3278 87.655V87.655Z" fill="black"/>
<path d="M87.9198 84.8801C88.0807 85.7165 89.8891 86.3045 92.0636 86.2023C94.0632 86.1185 95.6982 85.48 95.9977 84.7232C95.8869 84.6934 95.7716 84.6794 95.656 84.6818L88.106 84.8591C88.0434 84.8612 87.9811 84.8682 87.9198 84.8801V84.8801Z" fill="#26DC4E"/>
<path d="M71.9807 85.9356C72.0338 85.7903 72.0521 85.6363 72.0343 85.484C72.0165 85.3317 71.963 85.1846 71.8775 85.0527C71.7919 84.9207 71.6763 84.807 71.5384 84.7191C71.4004 84.6312 71.2434 84.5712 71.0778 84.5432C71.0165 84.5313 70.9542 84.5242 70.8916 84.5221L63.3416 84.3448C63.1722 84.3433 63.0044 84.374 62.8488 84.4351C62.6933 84.4961 62.5536 84.5861 62.4386 84.6992C62.3329 84.6786 62.225 84.6684 62.1169 84.6687C61.6423 84.6579 61.1825 84.819 60.8385 85.1165C60.4944 85.414 60.2945 85.8236 60.2826 86.2552C60.2707 86.6868 60.4478 87.105 60.7749 87.4178C61.1021 87.7307 61.5525 87.9125 62.0271 87.9233C62.2976 87.9283 62.5658 87.8781 62.8123 87.7766L63.5068 94.5307C63.5736 94.7528 63.7177 94.9492 63.9174 95.0906C64.1171 95.232 64.3618 95.3109 64.6149 95.3154L69.5231 95.4303C69.7744 95.4343 70.0206 95.3659 70.2264 95.2348C70.4322 95.1037 70.5871 94.9167 70.6687 94.7005L71.9807 85.9356ZM62.0427 87.4575C61.7039 87.4494 61.3824 87.3195 61.1487 87.0962C60.9151 86.8729 60.7883 86.5745 60.7962 86.2663C60.8042 85.9581 60.9462 85.6654 61.1911 85.4523C61.436 85.2392 61.7638 85.1231 62.1027 85.1295C62.1267 85.1295 62.1478 85.1399 62.1718 85.1399C62.118 85.3265 62.1193 85.5226 62.1756 85.7085L62.6698 87.318C62.4786 87.4155 62.2618 87.4637 62.0427 87.4575V87.4575Z" fill="black"/>
<path d="M71.0779 84.5432C70.917 85.3795 69.1086 85.9675 66.9341 85.8653C64.9345 85.7815 63.2995 85.143 62.9999 84.3863C63.1108 84.3564 63.2261 84.3425 63.3416 84.3448L70.8916 84.5221C70.9543 84.5242 71.0166 84.5313 71.0779 84.5432V84.5432Z" fill="#26DC4E"/>
<path d="M63.9227 69.8713C64.3009 69.62 64.7351 69.4472 65.1948 69.3651C65.6544 69.2829 66.1283 69.2934 66.583 69.3958C67.0377 69.4982 67.4622 69.69 67.8265 69.9577C68.1909 70.2254 68.4863 70.5625 68.6919 70.9453L79.9961 69.7017L77.3554 74.5171L67.0256 74.9598C66.2956 75.2313 65.4815 75.2498 64.7375 75.0119C63.9935 74.774 63.3713 74.2961 62.9888 73.6689C62.6064 73.0417 62.4902 72.3087 62.6623 71.6088C62.8344 70.9089 63.2829 70.2907 63.9227 69.8714L63.9227 69.8713Z" fill="#9E616A"/>
<path d="M100.789 60.0636C100.455 60.6583 100.049 61.3508 99.5935 62.1056C97.9928 64.766 95.7936 68.1998 94.1002 70.813C92.6532 73.042 91.5731 74.6764 91.5434 74.7218L91.4971 74.7892L81.5498 74.9931L79.4154 75.0369L78.6892 75.0521L70.8947 75.2121L70.9688 74.7909L71.697 70.6158L71.7711 70.1896L78.5984 69.1584L81.094 68.7827L86.63 67.947L87.5915 65.3658C89.2851 60.8291 92.1152 56.7125 95.8584 53.341C95.9677 53.2449 96.0789 53.154 96.1956 53.068C96.2975 52.9939 96.4013 52.9231 96.5069 52.8591C96.9552 53.437 97.3554 53.9593 97.6945 54.3788L98.5152 55.3948C99.6359 56.783 100.412 58.376 100.789 60.0636V60.0636Z" fill="#6C63FF"/>
<path d="M59.4263 75.4931C59.5079 75.7093 59.6628 75.8963 59.8686 76.0274C60.0744 76.1585 60.3206 76.2269 60.5719 76.2228L65.4801 76.108C65.7332 76.1035 65.9779 76.0246 66.1776 75.8832C66.3773 75.7418 66.5214 75.5454 66.5882 75.3233L67.2827 68.5692C67.5292 68.6707 67.7974 68.7208 68.0679 68.7159C68.5425 68.7051 68.9929 68.5232 69.3201 68.2104C69.6472 67.8976 69.8243 67.4794 69.8124 67.0478C69.8005 66.6162 69.6005 66.2066 69.2565 65.9091C68.9125 65.6116 68.4527 65.4505 67.9781 65.4613C67.87 65.461 67.7621 65.4712 67.6564 65.4918C67.5414 65.3786 67.4017 65.2887 67.2462 65.2276C67.0906 65.1666 66.9228 65.1359 66.7534 65.1374L59.2034 65.3147C59.1408 65.3168 59.0785 65.3239 59.0172 65.3358C58.8516 65.3638 58.6946 65.4238 58.5566 65.5117C58.4187 65.5996 58.3031 65.7133 58.2175 65.8453C58.132 65.9772 58.0785 66.1243 58.0607 66.2766C58.0429 66.4289 58.0612 66.5829 58.1143 66.7282L59.4263 75.4931ZM67.4252 68.1106L67.9194 66.5011C67.9756 66.3152 67.9769 66.1191 67.9232 65.9325C67.9472 65.9325 67.9683 65.9221 67.9923 65.9221C68.3312 65.9157 68.659 66.0318 68.9039 66.2449C69.1488 66.458 69.2908 66.7507 69.2988 67.0589C69.3067 67.3671 69.1799 67.6655 68.9463 67.8888C68.7126 68.1121 68.3911 68.242 68.0523 68.2501C67.8332 68.2563 67.6164 68.2081 67.4252 68.1106Z" fill="#CCCCCC"/>
<path d="M59.0172 65.3358C59.178 66.1721 60.9865 66.7601 63.161 66.6579C65.1606 66.5741 66.7956 65.9356 67.0951 65.1789C66.9842 65.149 66.869 65.1351 66.7534 65.1374L59.2034 65.3147C59.1408 65.3168 59.0785 65.3239 59.0172 65.3358V65.3358Z" fill="#26DC4E"/>
</g>
</g>
<defs>
<filter id="filter0_d_60_9" x="-0.000457764" y="0" width="164" height="150" filterUnits="userSpaceOnUse" color-interpolation-filters="sRGB">
<feFlood flood-opacity="0" result="BackgroundImageFix"/>
<feColorMatrix in="SourceAlpha" type="matrix" values="0 0 0 0 0 0 0 0 0 0 0 0 0 0 0 0 0 0 127 0" result="hardAlpha"/>
<feOffset dy="4"/>
<feGaussianBlur stdDeviation="2"/>
<feComposite in2="hardAlpha" operator="out"/>
<feColorMatrix type="matrix" values="0 0 0 0 0 0 0 0 0 0 0 0 0 0 0 0 0 0 0.25 0"/>
<feBlend mode="normal" in2="BackgroundImageFix" result="effect1_dropShadow_60_9"/>
<feBlend mode="normal" in="SourceGraphic" in2="effect1_dropShadow_60_9" result="shape"/>
</filter>
<linearGradient id="paint0_linear_60_9" x1="-88.5" y1="-469" x2="236.5" y2="139.5" gradientUnits="userSpaceOnUse">
<stop stop-color="#CEE1EC"/>
<stop offset="1" stop-color="#DB53FF"/>
</linearGradient>
<clipPath id="clip0_60_9">
<rect x="-98" y="-482" width="360" height="640" rx="24" fill="white"/>
</clipPath>
</defs>
</svg>
